<svg width="12" height="22" viewBox="0 0 12 22" fill="none" xmlns="http://www.w3.org/2000/svg">
<path fill-rule="evenodd" clip-rule="evenodd" d="M5.72207 20.9527L11.0535 17.7423L11.0547 17.7431V0.149353C11.0543 0.149353 11.0539 0.149353 11.0535 0.149353C10.8179 0.149353 10.5878 0.213561 10.3629 0.341977C10.1381 0.470393 9.97219 0.663016 9.86513 0.919848L7.45637 6.63435L1.22572 7.18012C0.925958 7.22293 0.690435 7.31924 0.519146 7.46906C0.347856 7.61887 0.219389 7.8115 0.133744 8.04693C0.0480994 8.28236 0.032041 8.52314 0.085569 8.76927C0.139097 9.0154 0.272917 9.23477 0.487029 9.4274L5.2082 13.5046L3.79506 19.5722C3.73082 19.8505 3.75224 20.102 3.85929 20.3267C3.96635 20.5514 4.11623 20.7387 4.30893 20.8885C4.50163 21.0383 4.72644 21.1239 4.98338 21.1453C5.24031 21.1667 5.48654 21.1025 5.72207 20.9527Z" fill="#E4D124"/>
</svg>
