<svg width="23" height="22" viewBox="0 0 23 22" fill="none" xmlns="http://www.w3.org/2000/svg">
<path d="M11.0547 18.5071L5.7227 21.7175C5.48715 21.8673 5.2409 21.9315 4.98393 21.9101C4.72697 21.8887 4.50213 21.8031 4.3094 21.6533C4.11668 21.5035 3.96679 21.3162 3.85972 21.0915C3.75265 20.8667 3.73124 20.6152 3.79548 20.337L5.20878 14.2694L0.487077 10.1922C0.272941 9.99954 0.139106 9.78017 0.0855725 9.53404C0.0320385 9.2879 0.0480987 9.04713 0.133753 8.8117C0.219407 8.57627 0.347889 8.38364 0.519198 8.23383C0.690507 8.08401 0.926056 7.98769 1.22585 7.94489L7.4572 7.39912L9.86623 1.68462C9.9733 1.42779 10.1393 1.23516 10.3641 1.10675C10.5889 0.978331 10.8191 0.914124 11.0547 0.914124C11.2902 0.914124 11.5204 0.978331 11.7453 1.10675C11.9701 1.23516 12.1361 1.42779 12.2431 1.68462L14.6522 7.39912L20.8835 7.94489C21.1833 7.98769 21.4189 8.08401 21.5902 8.23383C21.7615 8.38364 21.89 8.57627 21.9756 8.8117C22.0613 9.04713 22.0773 9.2879 22.0238 9.53404C21.9703 9.78017 21.8364 9.99954 21.6223 10.1922L16.9006 14.2694L18.3139 20.337C18.3781 20.6152 18.3567 20.8667 18.2497 21.0915C18.1426 21.3162 17.9927 21.5035 17.8 21.6533C17.6072 21.8031 17.3824 21.8887 17.1254 21.9101C16.8685 21.9315 16.6222 21.8673 16.3867 21.7175L11.0547 18.5071Z" fill="#E4D124"/>
</svg>
